<?xml version="1.0" standalone="no"?>
<svg xmlns:xlink="http://www.w3.org/1999/xlink" id="wave" style="transform:rotate(0deg); transition: 0.3s" viewBox="0 0 1440 140" version="1.1" xmlns="http://www.w3.org/2000/svg"><defs><linearGradient id="sw-gradient-0" x1="0" x2="0" y1="1" y2="0"><stop stop-color="rgba(115, 66, 214, 0.1)" offset="0%"/><stop stop-color="rgba(115, 66, 214, 0.1)" offset="100%"/></linearGradient></defs><path style="transform:translate(0, 0px); opacity:1" fill="url(#sw-gradient-0)" d="M0,112L30,102.7C60,93,120,75,180,67.7C240,61,300,65,360,60.7C420,56,480,42,540,35C600,28,660,28,720,37.3C780,47,840,65,900,60.7C960,56,1020,28,1080,18.7C1140,9,1200,19,1260,35C1320,51,1380,75,1440,74.7C1500,75,1560,51,1620,49C1680,47,1740,65,1800,67.7C1860,70,1920,56,1980,56C2040,56,2100,70,2160,74.7C2220,79,2280,75,2340,74.7C2400,75,2460,79,2520,84C2580,89,2640,93,2700,79.3C2760,65,2820,33,2880,28C2940,23,3000,47,3060,67.7C3120,89,3180,107,3240,95.7C3300,84,3360,42,3420,21C3480,0,3540,0,3600,7C3660,14,3720,28,3780,46.7C3840,65,3900,89,3960,100.3C4020,112,4080,112,4140,112C4200,112,4260,112,4290,112L4320,112L4320,140L4290,140C4260,140,4200,140,4140,140C4080,140,4020,140,3960,140C3900,140,3840,140,3780,140C3720,140,3660,140,3600,140C3540,140,3480,140,3420,140C3360,140,3300,140,3240,140C3180,140,3120,140,3060,140C3000,140,2940,140,2880,140C2820,140,2760,140,2700,140C2640,140,2580,140,2520,140C2460,140,2400,140,2340,140C2280,140,2220,140,2160,140C2100,140,2040,140,1980,140C1920,140,1860,140,1800,140C1740,140,1680,140,1620,140C1560,140,1500,140,1440,140C1380,140,1320,140,1260,140C1200,140,1140,140,1080,140C1020,140,960,140,900,140C840,140,780,140,720,140C660,140,600,140,540,140C480,140,420,140,360,140C300,140,240,140,180,140C120,140,60,140,30,140L0,140Z"/></svg>